{"title":"Killer.Elite.2011.720p.BRRip.x264.Feel-Free","uid":6926883,"size":2262246894,"categoryP":"video","categoryS":"hd___movies","magnet":"?xt=urn:btih:8022cc8008ca266785f11ff6b58c6563ebb9725c&amp;dn=Killer.Elite.2011.720p.BRRip.x264.Feel-Free&amp;tr=udp%3A%2F%2Ftracker.openbittorrent.com%3A80&amp;tr=udp%3A%2F%2Fopen.demonii.com%3A1337&amp;tr=udp%3A%2F%2Ftracker.coppersurfer.tk%3A6969&amp;tr=udp%3A%2F%2Fexodus.desync.com%3A6969","seeders":0,"leechers":1,"uploader":"Test_Verify","files":7,"time":1325539279,"description":"Genre:Action | Crime | Thriller \nLanguage:English\nIMDb:http://www.imdb.com/title/tt1448755/\nSource:1080p.BluRay.X264.AMIABLE Thanks!\n\nFormat                           : MPEG-4\nFormat profile                   : Base Media\nCodec ID                         : isom\nFile size                        : 2.10 GiB\nDuration                         : 1h 56mn\nOverall bit rate                 : 2 582 Kbps\n\n\nVideo\nID                               : 1\nFormat                           : AVC\nFormat/Info                      : Advanced Video Codec\nFormat profile                   : &lt;a class=&quot;__cf_email__&quot; href=&quot;/cdn-cgi/l/email-protection&quot; data-cfemail=&quot;276f4e404f676b120916&quot;&gt;[email&amp;#160;protected]&lt;/a&gt;&lt;script cf-hash='f9e31' type=&quot;text/javascript&quot;&gt;\n/* &lt;![CDATA[ */!function(){try{var t=&quot;currentScript&quot;in document?document.currentScript:function(){for(var t=document.getElementsByTagName(&quot;script&quot;),e=t.length;e--;)if(t[e].getAttribute(&quot;cf-hash&quot;))return t[e]}();if(t&amp;&amp;t.previousSibling){var e,r,n,i,c=t.previousSibling,a=c.getAttribute(&quot;data-cfemail&quot;);if(a){for(e=&quot;&quot;,r=parseInt(a.substr(0,2),16),n=2;a.length-n;n+=2)i=parseInt(a.substr(n,2),16)^r,e+=String.fromCharCode(i);e=document.createTextNode(e),c.parentNode.replaceChild(e,c)}}}catch(u){}}();/* ]]&gt; */&lt;/script&gt;\nFormat settings, CABAC           : Yes\nFormat settings, ReFrames        : 3 frames\nCodec ID                         : avc1\nCodec ID/Info                    : Advanced Video Coding\nDuration                         : 1h 56mn\nBit rate mode                    : Variable\nBit rate                         : 2 500 Kbps\nMaximum bit rate                 : 30.5 Mbps\nWidth                            : 1 280 pixels\nHeight                           : 536 pixels\nDisplay aspect ratio             : 2.35:1\nFrame rate mode                  : Constant\nFrame rate                       : 23.976 fps\nColor space                      : YUV\nChroma subsampling               : 4:2:0\nBit depth                        : 8 bits\nScan type                        : Progressive\nBits/(Pixel*Frame)               : 0.152\nStream size                      : 2.02 GiB (96%)\nWriting library                  : x264\n\nAudio\nID                               : 2\nFormat                           : AAC\nFormat/Info                      : Advanced Audio Codec\nFormat version                   : Version 4\nFormat profile                   : LC\nFormat settings, SBR             : No\nCodec ID                         : 40\nDuration                         : 1h 56mn\nBit rate mode                    : Variable\nBit rate                         : 446 Kbps\nMaximum bit rate                 : 542 Kbps\nChannel(s)                       : 6 channels\nChannel positions                : Front: L C R, Side: L R, LFE\nSampling rate                    : 48.0 KHz\nStream size                      : 372 MiB (17%)\n\n   \nPlot:\n When his mentor is taken captive, a retired member of Britain's Elite Special Air Service is forced into action. His mission: kill three assassins dispatched by their cunning leader\n\n &lt;a href=&quot;\nhttp://img651.imageshack.us/img651/8092/vlcsnap00003dm.png&quot; rel=&quot;nofollow&quot; target=&quot;_NEW&quot;&gt;\nhttp://img651.imageshack.us/img651/8092/vlcsnap00003dm.png&lt;/a&gt;\n &lt;a href=&quot;\nhttp://img513.imageshack.us/img513/3879/vlcsnap00002p.png&quot; rel=&quot;nofollow&quot; target=&quot;_NEW&quot;&gt;\nhttp://img513.imageshack.us/img513/3879/vlcsnap00002p.png&lt;/a&gt;\n &lt;a href=&quot;\nhttp://img714.imageshack.us/img714/8072/vlcsnap00001ae.png&quot; rel=&quot;nofollow&quot; target=&quot;_NEW&quot;&gt;\nhttp://img714.imageshack.us/img714/8072/vlcsnap00001ae.png&lt;/a&gt;","torrent":{"xt":"urn:btih:8022cc8008ca266785f11ff6b58c6563ebb9725c","amp;dn":"Killer.Elite.2011.720p.BRRip.x264.Feel-Free","amp;tr":["udp%3A%2F%2Ftracker.openbittorrent.com%3A80","udp%3A%2F%2Fopen.demonii.com%3A1337","udp%3A%2F%2Ftracker.coppersurfer.tk%3A6969","udp%3A%2F%2Fexodus.desync.com%3A6969"],"infoHash":"8022cc8008ca266785f11ff6b58c6563ebb9725c","infoHashBuffer":{"type":"Buffer","data":[128,34,204,128,8,202,38,103,133,241,31,246,181,140,101,99,235,185,114,92]},"announce":[],"urlList":[]}}